# xmcd CD database file
#
# Track frame offsets:
#	150
#	14886
#	34269
#	46961
#	64112
#	86031
#	102273
#	121417
#	137369
#
# Disc length: 1937 seconds
#
# Revision: 0
# Processed by: cddbd v1.5.2PL0 Copyright (c) Steve Scherf et al.
# Submitted via: CDex 1.77
#
DISCID=79078f09
DTITLE=Yoopi Jazz Band - Yoopi Jazz Band
DYEAR=2019
DGENRE=Jazz
TTITLE0=Four Or Five Times
TTITLE1=Sheik Of Araby
TTITLE2=Out Of My Mind
TTITLE3=A Train
TTITLE4=Black And Blue
TTITLE5=Shake It Break It
TTITLE6=Walking Stick
TTITLE7=Wayfaring Stranger
TTITLE8=Rock My Soul
EXTD=YEAR: 2019
EXTT0=
EXTT1=
EXTT2=
EXTT3=
EXTT4=
EXTT5=
EXTT6=
EXTT7=
EXTT8=
PLAYORDER=
